{
  "accessors": [
    {
      "bufferView": 2,
      "componentType": 5126,
      "count": 4349,
      "max": [
        33.50767135620117,
        -2.375469923019409,
        35.43120574951172
      ],
      "min": [
        -13.488784790039063,
        -100.8687744140625,
        -35.110172271728516
      ],
      "type": "VEC3"
    },
    {
      "bufferView": 2,
      "byteOffset": 52188,
      "componentType": 5126,
      "count": 4349,
      "max": [
        0.9993221163749695,
        0.9992406368255615,
        0.9999442100524902
      ],
      "min": [
        -0.9997511506080627,
        -0.9998443126678467,
        -0.9994164705276489
      ],
      "type": "VEC3"
    },
    {
      "bufferView": 3,
      "componentType": 5126,
      "count": 4349,
      "max": [
        0.999980628490448,
        0.9999769926071167,
        0.9999549984931946,
        1.0
      ],
      "min": [
        -0.9987301230430603,
        -0.9997642636299133,
        -0.9999586343765259,
        -1.0
      ],
      "type": "VEC4"
    },
    {
      "bufferView": 1,
      "componentType": 5126,
      "count": 4349,
      "max": [
        0.9931640028953552,
        0.9992629885673523
      ],
      "min": [
        0.004127999767661095,
        0.005371000152081251
      ],
      "type": "VEC2"
    },
    {
      "bufferView": 0,
      "componentType": 5125,
      "count": 21042,
      "type": "SCALAR"
    },
    {
      "bufferView": 2,
      "byteOffset": 104376,
      "componentType": 5126,
      "count": 5058,
      "max": [
        34.920894622802734,
        -29.884126663208008,
        15.464625358581543
      ],
      "min": [
        -8.827836990356445,
        -88.18547058105469,
        -15.527090072631836
      ],
      "type": "VEC3"
    },
    {
      "bufferView": 2,
      "byteOffset": 165072,
      "componentType": 5126,
      "count": 5058,
      "max": [
        0.9999673366546631,
        0.9985383749008179,
        0.9998999834060669
      ],
      "min": [
        -0.9993783235549927,
        -0.9999442100524902,
        -0.9998583793640137
      ],
      "type": "VEC3"
    },
    {
      "bufferView": 3,
      "byteOffset": 69584,
      "componentType": 5126,
      "count": 5058,
      "max": [
        0.8575193881988525,
        0.9992718696594238,
        0.9998931884765625,
        1.0
      ],
      "min": [
        -0.9999856352806091,
        -0.9975572228431702,
        -0.9997548460960388,
        -1.0
      ],
      "type": "VEC4"
    },
    {
      "bufferView": 1,
      "byteOffset": 34792,
      "componentType": 5126,
      "count": 5058,
      "max": [
        0.9990230202674866,
        0.9459530115127563
      ],
      "min": [
        0.004253000020980835,
        0.08642599731683731
      ],
      "type": "VEC2"
    },
    {
      "bufferView": 0,
      "byteOffset": 84168,
      "componentType": 5125,
      "count": 13584,
      "type": "SCALAR"
    },
    {
      "bufferView": 2,
      "byteOffset": 225768,
      "componentType": 5126,
      "count": 392,
      "max": [
        -25.678359985351563,
        -78.6139907836914,
        -11.581353187561035
      ],
      "min": [
        -32.725093841552734,
        -84.51528930664063,
        -18.642301559448242
      ],
      "type": "VEC3"
    },
    {
      "bufferView": 2,
      "byteOffset": 230472,
      "componentType": 5126,
      "count": 392,
      "max": [
        0.9983699321746826,
        0.380070298910141,
        0.9994314312934875
      ],
      "min": [
        -0.9936573505401611,
        -0.9996214509010315,
        -0.9982811212539673
      ],
      "type": "VEC3"
    },
    {
      "bufferView": 3,
      "byteOffset": 150512,
      "componentType": 5126,
      "count": 392,
      "max": [
        0.9884588122367859,
        0.9985046982765198,
        0.99661785364151,
        1.0
      ],
      "min": [
        -0.9884153008460999,
        -0.994096040725708,
        -0.99666827917099,
        1.0
      ],
      "type": "VEC4"
    },
    {
      "bufferView": 1,
      "byteOffset": 75256,
      "componentType": 5126,
      "count": 392,
      "max": [
        0.9916989803314209,
        0.9951099753379822
      ],
      "min": [
        0.0095210000872612,
        0.007323999889194965
      ],
      "type": "VEC2"
    },
    {
      "bufferView": 0,
      "byteOffset": 138504,
      "componentType": 5125,
      "count": 2112,
      "type": "SCALAR"
    },
    {
      "bufferView": 2,
      "byteOffset": 235176,
      "componentType": 5126,
      "count": 4391,
      "max": [
        47.19489288330078,
        -3.9793670177459717,
        19.894805908203125
      ],
      "min": [
        -7.178524971008301,
        -87.60562133789063,
        -19.89478874206543
      ],
      "type": "VEC3"
    },
    {
      "bufferView": 2,
      "byteOffset": 287868,
      "componentType": 5126,
      "count": 4391,
      "max": [
        1.0,
        0.9999980926513672,
        0.9998424053192139
      ],
      "min": [
        -0.9998774528503418,
        -0.999992311000824,
        -0.9998430013656616
      ],
      "type": "VEC3"
    },
    {
      "bufferView": 3,
      "byteOffset": 156784,
      "componentType": 5126,
      "count": 4391,
      "max": [
        0.9994679093360901,
        1.0,
        1.0,
        1.0
      ],
      "min": [
        -0.9999873042106628,
        -0.9999774694442749,
        -0.9999972581863403,
        -1.0
      ],
      "type": "VEC4"
    },
    {
      "bufferView": 1,
      "byteOffset": 78392,
      "componentType": 5126,
      "count": 4391,
      "max": [
        0.9921879768371582,
        0.9916080236434937
      ],
      "min": [
        0.0039900001138448715,
        0.0078119998797774315
      ],
      "type": "VEC2"
    },
    {
      "bufferView": 0,
      "byteOffset": 146952,
      "componentType": 5125,
      "count": 22872,
      "type": "SCALAR"
    },
    {
      "bufferView": 2,
      "byteOffset": 340560,
      "componentType": 5126,
      "count": 2546,
      "max": [
        51.73783493041992,
        -22.207408905029297,
        24.624746322631836
      ],
      "min": [
        -32.42210006713867,
        -102.67620086669922,
        -35.70952224731445
      ],
      "type": "VEC3"
    },
    {
      "bufferView": 2,
      "byteOffset": 371112,
      "componentType": 5126,
      "count": 2546,
      "max": [
        0.9977458119392395,
        0.9944024682044983,
        1.0
      ],
      "min": [
        -0.9945940971374512,
        -0.9991092681884766,
        -1.0
      ],
      "type": "VEC3"
    },
    {
      "bufferView": 3,
      "byteOffset": 227040,
      "componentType": 5126,
      "count": 2546,
      "max": [
        1.0,
        0.9918280243873596,
        0.9994465112686157,
        1.0
      ],
      "min": [
        -1.0,
        -0.9984424710273743,
        -0.999868631362915,
        -1.0
      ],
      "type": "VEC4"
    },
    {
      "bufferView": 1,
      "byteOffset": 113520,
      "componentType": 5126,
      "count": 2546,
      "max": [
        0.9941409826278687,
        0.9963870048522949
      ],
      "min": [
        0.006519000045955181,
        0.007323999889194965
      ],
      "type": "VEC2"
    },
    {
      "bufferView": 0,
      "byteOffset": 238440,
      "componentType": 5125,
      "count": 11724,
      "type": "SCALAR"
    },
    {
      "bufferView": 2,
      "byteOffset": 401664,
      "componentType": 5126,
      "count": 5479,
      "max": [
        14.522120475769043,
        -4.064947128295898,
        30.01681137084961
      ],
      "min": [
        -53.508487701416016,
        -124.9055404663086,
        -34.02408981323242
      ],
      "type": "VEC3"
    },
    {
      "bufferView": 2,
      "byteOffset": 467412,
      "componentType": 5126,
      "count": 5479,
      "max": [
        0.9997598528862,
        0.9995216131210327,
        0.9999442100524902
      ],
      "min": [
        -0.999187171459198,
        -0.999767541885376,
        -0.9995388984680176
      ],
      "type": "VEC3"
    },
    {
      "bufferView": 3,
      "byteOffset": 267776,
      "componentType": 5126,
      "count": 5479,
      "max": [
        0.999552845954895,
        0.9992318153381348,
        0.9999200105667114,
        1.0
      ],
      "min": [
        -0.9998422265052795,
        -0.9996160268783569,
        -0.9995148181915283,
        1.0
      ],
      "type": "VEC4"
    },
    {
      "bufferView": 1,
      "byteOffset": 133888,
      "componentType": 5126,
      "count": 5479,
      "max": [
        0.9970700144767761,
        0.9970589876174927
      ],
      "min": [
        0.0017600000137463212,
        0.0009769999887794256
      ],
      "type": "VEC2"
    },
    {
      "bufferView": 0,
      "byteOffset": 285336,
      "componentType": 5125,
      "count": 24921,
      "type": "SCALAR"
    }
  ],
  "asset": {
    "extras": {
      "author": "DanixsDesigner (https://sketchfab.com/DanixsDesigner4774)",
      "license": "CC-BY-4.0 (http://creativecommons.org/licenses/by/4.0/)",
      "source": "https://sketchfab.com/3d-models/mono-bomba-call-of-duty-49c88021414744af8ca53a79e46fe072",
      "title": "Mono Bomba - Call Of Duty"
    },
    "generator": "Sketchfab-15.96.0",
    "version": "2.0"
  },
  "bufferViews": [
    {
      "buffer": 0,
      "byteLength": 385020,
      "name": "floatBufferViews",
      "target": 34963
    },
    {
      "buffer": 0,
      "byteLength": 177720,
      "byteOffset": 385020,
      "byteStride": 8,
      "name": "floatBufferViews",
      "target": 34962
    },
    {
      "buffer": 0,
      "byteLength": 533160,
      "byteOffset": 562740,
      "byteStride": 12,
      "name": "floatBufferViews",
      "target": 34962
    },
    {
      "buffer": 0,
      "byteLength": 355440,
      "byteOffset": 1095900,
      "byteStride": 16,
      "name": "floatBufferViews",
      "target": 34962
    }
  ],
  "buffers": [
    {
      "byteLength": 1451340,
      "uri": "scene.bin"
    }
  ],
  "images": [
    {
      "uri": "textures/mtl_wpn_t7_zmb_monkey_clothes_lowres_baseColor.png"
    },
    {
      "uri": "textures/mtl_wpn_t7_zmb_monkey_clothes_lowres_metallicRoughness.png"
    },
    {
      "uri": "textures/mtl_wpn_t7_zmb_monkey_clothes_lowres_normal.png"
    },
    {
      "uri": "textures/mtl_wpn_t7_zmb_monkey_fur_lowres_baseColor.png"
    },
    {
      "uri": "textures/mtl_wpn_t7_zmb_monkey_fur_lowres_normal.png"
    },
    {
      "uri": "textures/mtl_wpn_t7_zmb_monkey_light_lowres_baseColor.png"
    },
    {
      "uri": "textures/mtl_wpn_t7_zmb_monkey_light_lowres_metallicRoughness.png"
    },
    {
      "uri": "textures/mtl_wpn_t7_zmb_monkey_light_lowres_normal.png"
    },
    {
      "uri": "textures/mtl_wpn_t7_zmb_monkey_lowres_baseColor.png"
    },
    {
      "uri": "textures/mtl_wpn_t7_zmb_monkey_lowres_metallicRoughness.png"
    },
    {
      "uri": "textures/mtl_wpn_t7_zmb_monkey_lowres_normal.png"
    },
    {
      "uri": "textures/mtl_wpn_t7_zmb_monkey_metal_lowres_baseColor.png"
    },
    {
      "uri": "textures/mtl_wpn_t7_zmb_monkey_metal_lowres_metallicRoughness.png"
    },
    {
      "uri": "textures/mtl_wpn_t7_zmb_monkey_metal_lowres_normal.png"
    }
  ],
  "materials": [
    {
      "doubleSided": true,
      "name": "mtl_wpn_t7_zmb_monkey_clothes_lowres",
      "normalTexture": {
        "index": 2
      },
      "occlusionTexture": {
        "index": 1
      },
      "pbrMetallicRoughness": {
        "baseColorTexture": {
          "index": 0
        },
        "metallicFactor": 0.0,
        "metallicRoughnessTexture": {
          "index": 1
        },
        "roughnessFactor": 0.8
      }
    },
    {
      "alphaCutoff": 0.21790542599748874,
      "alphaMode": "MASK",
      "doubleSided": true,
      "name": "mtl_wpn_t7_zmb_monkey_fur_lowres",
      "normalTexture": {
        "index": 4
      },
      "pbrMetallicRoughness": {
        "baseColorTexture": {
          "index": 3
        },
        "metallicFactor": 0.0,
        "roughnessFactor": 0.6
      }
    },
    {
      "doubleSided": true,
      "emissiveFactor": [
        1.0,
        1.0,
        1.0
      ],
      "emissiveTexture": {
        "index": 5
      },
      "name": "mtl_wpn_t7_zmb_monkey_light_lowres",
      "normalTexture": {
        "index": 7
      },
      "pbrMetallicRoughness": {
        "baseColorTexture": {
          "index": 5
        },
        "metallicFactor": 0.0,
        "metallicRoughnessTexture": {
          "index": 6
        },
        "roughnessFactor": 0.25
      }
    },
    {
      "doubleSided": true,
      "name": "mtl_wpn_t7_zmb_monkey_lowres",
      "normalTexture": {
        "index": 10
      },
      "occlusionTexture": {
        "index": 9
      },
      "pbrMetallicRoughness": {
        "baseColorTexture": {
          "index": 8
        },
        "metallicFactor": 0.0,
        "metallicRoughnessTexture": {
          "index": 9
        }
      }
    },
    {
      "doubleSided": true,
      "name": "mtl_wpn_t7_zmb_monkey_metal_lowres",
      "normalTexture": {
        "index": 13
      },
      "occlusionTexture": {
        "index": 12
      },
      "pbrMetallicRoughness": {
        "baseColorTexture": {
          "index": 11
        },
        "metallicRoughnessTexture": {
          "index": 12
        },
        "roughnessFactor": 0.4
      }
    },
    {
      "doubleSided": true,
      "name": "mtl_wpn_t7_zmb_monkey_plastic_lowres",
      "normalTexture": {
        "index": 2
      },
      "occlusionTexture": {
        "index": 1
      },
      "pbrMetallicRoughness": {
        "baseColorTexture": {
          "index": 0
        },
        "metallicFactor": 0.0,
        "metallicRoughnessTexture": {
          "index": 1
        },
        "roughnessFactor": 0.8
      }
    }
  ],
  "meshes": [
    {
      "name": "Object_0",
      "primitives": [
        {
          "attributes": {
            "NORMAL": 1,
            "POSITION": 0,
            "TANGENT": 2,
            "TEXCOORD_0": 3
          },
          "indices": 4,
          "material": 0,
          "mode": 4
        }
      ]
    },
    {
      "name": "Object_1",
      "primitives": [
        {
          "attributes": {
            "NORMAL": 6,
            "POSITION": 5,
            "TANGENT": 7,
            "TEXCOORD_0": 8
          },
          "indices": 9,
          "material": 1,
          "mode": 4
        }
      ]
    },
    {
      "name": "Object_2",
      "primitives": [
        {
          "attributes": {
            "NORMAL": 11,
            "POSITION": 10,
            "TANGENT": 12,
            "TEXCOORD_0": 13
          },
          "indices": 14,
          "material": 2,
          "mode": 4
        }
      ]
    },
    {
      "name": "Object_3",
      "primitives": [
        {
          "attributes": {
            "NORMAL": 16,
            "POSITION": 15,
            "TANGENT": 17,
            "TEXCOORD_0": 18
          },
          "indices": 19,
          "material": 3,
          "mode": 4
        }
      ]
    },
    {
      "name": "Object_4",
      "primitives": [
        {
          "attributes": {
            "NORMAL": 21,
            "POSITION": 20,
            "TANGENT": 22,
            "TEXCOORD_0": 23
          },
          "indices": 24,
          "material": 4,
          "mode": 4
        }
      ]
    },
    {
      "name": "Object_5",
      "primitives": [
        {
          "attributes": {
            "NORMAL": 26,
            "POSITION": 25,
            "TANGENT": 27,
            "TEXCOORD_0": 28
          },
          "indices": 29,
          "material": 5,
          "mode": 4
        }
      ]
    }
  ],
  "nodes": [
    {
      "children": [
        1
      ],
      "matrix": [
        1.0,
        -4.8033446892643715e-32,
        1.6081226229577292e-16,
        0.0,
        1.232595164407831e-32,
        -1.0,
        -4.440892098500626e-16,
        0.0,
        1.6081226229577292e-16,
        4.440892098500626e-16,
        -1.0,
        0.0,
        0.0,
        0.0,
        0.0,
        1.0
      ],
      "name": "Sketchfab_model"
    },
    {
      "children": [
        2,
        3,
        4,
        5,
        6,
        7
      ],
      "name": "zombietron_monkey_bomb_LOD0.obj.cleaner.materialmerger.gles"
    },
    {
      "mesh": 0,
      "name": "Object_2"
    },
    {
      "mesh": 1,
      "name": "Object_3"
    },
    {
      "mesh": 2,
      "name": "Object_4"
    },
    {
      "mesh": 3,
      "name": "Object_5"
    },
    {
      "mesh": 4,
      "name": "Object_6"
    },
    {
      "mesh": 5,
      "name": "Object_7"
    }
  ],
  "samplers": [
    {
      "magFilter": 9729,
      "minFilter": 9987,
      "wrapS": 10497,
      "wrapT": 10497
    }
  ],
  "scene": 0,
  "scenes": [
    {
      "name": "Sketchfab_Scene",
      "nodes": [
        0
      ]
    }
  ],
  "textures": [
    {
      "sampler": 0,
      "source": 0
    },
    {
      "sampler": 0,
      "source": 1
    },
    {
      "sampler": 0,
      "source": 2
    },
    {
      "sampler": 0,
      "source": 3
    },
    {
      "sampler": 0,
      "source": 4
    },
    {
      "sampler": 0,
      "source": 5
    },
    {
      "sampler": 0,
      "source": 6
    },
    {
      "sampler": 0,
      "source": 7
    },
    {
      "sampler": 0,
      "source": 8
    },
    {
      "sampler": 0,
      "source": 9
    },
    {
      "sampler": 0,
      "source": 10
    },
    {
      "sampler": 0,
      "source": 11
    },
    {
      "sampler": 0,
      "source": 12
    },
    {
      "sampler": 0,
      "source": 13
    }
  ]
}
